<svg width="24" height="24" viewBox="0 0 24 24" fill="none" xmlns="http://www.w3.org/2000/svg">
<g id="&#208;&#148;&#208;&#190;&#208;&#191;&#208;&#190;&#208;&#187;&#208;&#189;&#208;&#184;&#209;&#130;&#208;&#181;&#208;&#187;&#209;&#140;&#208;&#189;&#209;&#139;&#208;&#181; / &#208;&#161;&#209;&#130;&#209;&#128;&#208;&#181;&#208;&#187;&#208;&#186;&#208;&#176; &#208;&#188;&#208;&#176;&#208;&#187;&#208;&#181;&#208;&#189;&#209;&#140;&#208;&#186;&#208;&#176;&#209;&#143; left">
<g id="Group">
<path id="Vector (Stroke)" fill-rule="evenodd" clip-rule="evenodd" d="M14.7239 5.31007C15.1049 5.70986 15.0897 6.34284 14.6899 6.72388L9.15417 12L14.6899 17.2762C15.0897 17.6572 15.1049 18.2902 14.7239 18.69C14.3428 19.0898 13.7099 19.105 13.3101 18.7239L7.51005 13.1959L7.49376 13.18C7.33855 13.0252 7.21541 12.8413 7.13139 12.6388C7.04737 12.4363 7.00412 12.2193 7.00412 12C7.00412 11.7808 7.04737 11.5637 7.13139 11.3612C7.21541 11.1588 7.33855 10.9748 7.49376 10.82L7.51005 10.8041L13.3101 5.27613C13.7099 4.89509 14.3428 4.91029 14.7239 5.31007Z" fill="#444444"/>
</g>
</g>
</svg>
