<svg width="24" height="24" viewBox="0 0 24 24" fill="none" xmlns="http://www.w3.org/2000/svg">
<g id="&#208;&#148;&#208;&#190;&#208;&#191;&#208;&#190;&#208;&#187;&#208;&#189;&#208;&#184;&#209;&#130;&#208;&#181;&#208;&#187;&#209;&#140;&#208;&#189;&#209;&#139;&#208;&#181; / &#208;&#161;&#209;&#130;&#209;&#128;&#208;&#181;&#208;&#187;&#208;&#186;&#208;&#176; &#208;&#188;&#208;&#176;&#208;&#187;&#208;&#181;&#208;&#189;&#209;&#140;&#208;&#186;&#208;&#176;&#209;&#143; right">
<g id="Group">
<path id="Vector (Stroke)" fill-rule="evenodd" clip-rule="evenodd" d="M7.28052 18.6899C6.89948 18.2901 6.91468 17.6572 7.31447 17.2761L12.8502 12L7.31447 6.72382C6.91468 6.34278 6.89948 5.7098 7.28052 5.31001C7.66156 4.91023 8.29454 4.89503 8.69433 5.27606L14.4943 10.8041L14.5106 10.82C14.6658 10.9748 14.789 11.1587 14.873 11.3612C14.957 11.5637 15.0003 11.7807 15.0003 12C15.0003 12.2192 14.957 12.4363 14.873 12.6387C14.789 12.8412 14.6658 13.0252 14.5106 13.18L14.4943 13.1958L8.69433 18.7239C8.29454 19.1049 7.66156 19.0897 7.28052 18.6899Z" fill="#444444"/>
</g>
</g>
</svg>
