<svg width="16" height="16" viewBox="0 0 16 16" fill="none" xmlns="http://www.w3.org/2000/svg">
<g id="&#208;&#148;&#208;&#190;&#208;&#191;&#208;&#190;&#208;&#187;&#208;&#189;&#208;&#184;&#209;&#130;&#208;&#181;&#208;&#187;&#209;&#140;&#208;&#189;&#209;&#139;&#208;&#181; / &#208;&#161;&#209;&#130;&#209;&#128;&#208;&#181;&#208;&#187;&#208;&#186;&#208;&#176; &#208;&#188;&#208;&#176;&#208;&#187;&#208;&#181;&#208;&#189;&#209;&#140;&#208;&#186;&#208;&#176;&#209;&#143; left">
<g id="Group">
<path id="Vector (Stroke)" fill-rule="evenodd" clip-rule="evenodd" d="M3.53997 6.18408C3.80649 5.93006 4.22848 5.94019 4.4825 6.20671L7.99994 9.89722L11.5174 6.20671C11.7714 5.94019 12.1934 5.93006 12.4599 6.18408C12.7264 6.43811 12.7366 6.8601 12.4825 7.12662L8.79719 10.9933L8.7866 11.0042C8.68339 11.1076 8.56078 11.1897 8.42579 11.2457C8.2908 11.3018 8.14609 11.3306 7.99994 11.3306C7.85379 11.3306 7.70907 11.3018 7.57408 11.2457C7.43909 11.1897 7.31648 11.1076 7.21327 11.0042L7.20268 10.9933L3.51734 7.12662C3.26331 6.8601 3.27344 6.43811 3.53997 6.18408Z" fill="#444444"/>
</g>
</g>
</svg>
